<?xml version="1.0" standalone="no"?>
<!DOCTYPE svg PUBLIC "-//W3C//DTD SVG 20010904//EN"
 "http://www.w3.org/TR/2001/REC-SVG-20010904/DTD/svg10.dtd">
<svg version="1.0" xmlns="http://www.w3.org/2000/svg" fill="#000000"
 width="90.000000pt" height="70.000000pt" viewBox="0 0 90.000000 70.000000"
 preserveAspectRatio="xMidYMid meet">

<g transform="translate(0.000000,70.000000) scale(0.100000,-0.100000)" stroke="none">
<path d="M60 505 l0 -125 385 0 385 0 0 125 0 125 -385 0 -385 0 0 -125z m720
0 l0 -75 -335 0 -335 0 0 75 0 75 335 0 335 0 0 -75z"/>
<path d="M60 195 l0 -125 385 0 385 0 0 125 0 125 -385 0 -385 0 0 -125z m720
0 l0 -75 -335 0 -335 0 0 75 0 75 335 0 335 0 0 -75z"/>
</g>
</svg>
